<?xml version="1.0" encoding="utf-8"?>
<!-- Generator: Adobe Illustrator 23.1.0, SVG Export Plug-In . SVG Version: 6.00 Build 0)  -->
<svg version="1.1" id="Layer_1" xmlns="http://www.w3.org/2000/svg" xmlns:xlink="http://www.w3.org/1999/xlink" x="0px" y="0px"
	 viewBox="0 0 100 100" style="enable-background:new 0 0 100 100;" xml:space="preserve">
<style type="text/css">
	.st0{fill:#FFFFFF;}
</style>
<g>
	<path class="st0" d="M50,17.97c-10.39,0-18.84,7.1-18.84,15.82S39.61,49.61,50,49.61s18.84-7.1,18.84-15.82S60.39,17.97,50,17.97
		L50,17.97z M50,41.8c-5.26,0-9.53-3.59-9.53-8.01c0-4.42,4.28-8.01,9.53-8.01c5.26,0,9.53,3.59,9.53,8.01
		C59.53,38.2,55.26,41.8,50,41.8L50,41.8z M50,41.8"/>
	<path class="st0" d="M67.14,72.06c1.37-1.22,2.77-2.52,4.17-3.88c12.56-12.17,18.93-23.11,18.93-32.51v-1.88
		C90.23,15.16,72.18,0,50,0S9.77,15.16,9.77,33.79v1.88c0,9.4,6.37,20.34,18.93,32.51c1.4,1.36,2.8,2.65,4.17,3.88
		C19.85,73.26,0,76.57,0,85.65c0,4.85,5.62,8.6,16.7,11.15c8.95,2.06,20.78,3.2,33.3,3.2s24.34-1.14,33.3-3.2
		c11.08-2.55,16.7-6.3,16.7-11.15C100,76.57,80.22,73.26,67.14,72.06L67.14,72.06z M19.07,35.68v-1.88
		C19.07,19.47,32.94,7.81,50,7.81c17.06,0,30.93,11.65,30.93,25.98v1.88c0,7.34-5.73,16.78-16.56,27.31
		C58.85,68.34,53.28,72.73,50,75.18c-3.26-2.43-8.78-6.78-14.27-12.11C24.83,52.51,19.07,43.04,19.07,35.68L19.07,35.68z
		 M78.82,89.7c-7.92,1.6-18.16,2.48-28.82,2.48c-10.66,0-20.9-0.88-28.82-2.48c-8.04-1.63-10.8-3.36-11.63-4.05
		c0.72-0.61,2.92-2,8.87-3.44c6.13-1.48,14.34-2.51,23.14-2.91c3.18,2.46,5.32,3.94,5.5,4.06L50,85.37l2.94-2.01
		c0.18-0.12,2.32-1.6,5.5-4.06c8.77,0.39,16.95,1.42,23.07,2.89c6.01,1.45,8.22,2.85,8.94,3.46C89.62,86.35,86.86,88.08,78.82,89.7
		L78.82,89.7z M78.82,89.7"/>
</g>
</svg>
